<?xml version="1.0" encoding="UTF-8"?>
<svg width="227px" height="50px" viewBox="0 0 227 50" version="1.1" xmlns="http://www.w3.org/2000/svg" xmlns:xlink="http://www.w3.org/1999/xlink">
    <!-- Generator: sketchtool 51.3 (57544) - http://www.bohemiancoding.com/sketch -->
    <title>3C8689C3-16C4-40F7-9361-1BC38BDF24D7</title>
    <desc>Created with sketchtool.</desc>
    <defs></defs>
    <g id="1440" stroke="none" stroke-width="1" fill="none" fill-rule="evenodd">
        <g id="shop" transform="translate(-606.000000, -32.000000)" fill="#FFFFFF" fill-rule="nonzero">
            <g id="Group" transform="translate(606.000000, 32.000000)">
                <path d="M177.14902,30.1596541 C177.14902,36.5354004 179.574852,40.0588235 186.756484,40.0588235 C191.232127,40.0588235 193.655578,38.0118797 195.181697,35.3474287 L195.278754,35.3474287 L195.278754,39.5824439 L204.745098,39.5824439 L204.745098,12.5112763 L194.94352,12.5112763 L194.94352,27.4508403 C194.94352,31.3005834 193.467418,33.2531446 190.806088,33.2531446 C189.329688,33.2531446 188.380255,32.7326998 187.756529,31.7769631 C187.185798,30.9242435 186.997936,29.8300589 186.997936,27.4008204 L186.997936,12.4627451 L177.149317,12.4627451 L177.149317,30.1596541" id="Shape"></path>
                <path d="M92.8771242,22.062739 C92.8771242,15.686351 90.4452024,12.1660131 83.2514383,12.1660131 C78.7690552,12.1660131 76.3401159,14.2115786 74.8142744,16.8761733 L74.7170453,16.8761733 L74.7170453,12.6424184 L65.2810458,12.6424184 L65.2810458,39.718024 L75.0999969,39.718024 L75.0999969,24.7758675 C75.0999969,20.9217481 76.5787151,18.9702727 79.2447622,18.9702727 C80.7234804,18.9702727 81.676684,19.4937231 82.2982348,20.4453428 C82.8681885,21.3010859 83.058173,22.3968183 83.058173,24.8246991 L83.058173,39.7620915 L92.8771242,39.7620915 L92.8771242,22.062739" id="Shape"></path>
                <path d="M30.7094052,11.8448972 C30.7094052,5.67788757 26.59775,0.890196078 15.9671051,0.890196078 C6.18906396,0.890196078 0.992733546,6.06048734 0.992733546,13.1277492 C0.992733546,19.7684821 5.62115415,23.2293924 10.5824568,24.0854186 C11.955078,24.3184216 14.2211002,24.7479187 16.4430732,25.2228293 C20.0320504,25.979421 21.2598116,26.927758 21.2598116,29.2088125 C21.2598116,31.434065 19.322237,33.1900465 15.9233515,33.1900465 C12.7565374,33.1900465 10.3459509,31.6715202 10.4423271,28.5433441 L0,28.5433441 C0.376635657,36.7495008 5.95403622,40.3555556 15.3539635,40.3555556 C25.7481025,40.3555556 31.7503268,35.8465772 31.7503268,27.0248178 C31.7503268,21.2840403 28.1105009,17.6340563 21.6846354,16.4479673 C19.4653231,16.0214383 17.1029247,15.5949093 15.7303035,15.3544859 C12.5197358,14.7388831 11.3868725,13.0793677 11.3868725,11.5151313 C11.3868725,9.33232388 13.228071,8.00287129 15.8751634,8.00287129 C18.8507033,8.00287129 20.4116423,9.90281012 20.4116423,11.7968126 L30.7094052,11.7968126 L30.7094052,11.8448972 Z" id="Shape"></path>
                <path d="M53.2478491,39.7517146 C51.0602459,46.1356739 48.0661983,49.2575163 40.4122644,49.2575163 C36.9889658,49.2575163 35.8005684,48.8775329 35.8005684,48.8775329 L35.8005684,42.019778 C35.8005684,42.019778 37.1817272,42.2538644 38.7491029,42.2538644 C41.5051736,42.2538644 43.1680376,41.5933324 43.6912894,39.5614269 L33.2339869,12.4627451 L43.406312,12.4627451 C43.406312,12.4627451 46.4033343,22.0141212 47.2100762,25.2324392 C47.5920292,26.6499788 48.3984736,30.9996652 48.3984736,30.9996652 L48.4939619,30.9996652 C48.4939619,30.9996652 49.2548932,26.6499788 49.5853837,25.2324392 C50.3478024,22.0141212 53.1068477,12.4627451 53.1068477,12.4627451 L62.6104575,12.4627451 L53.2478491,39.7517146" id="Shape"></path>
                <path d="M163.302545,23.0649489 L172.900996,23.0649489 C172.900996,16.0154493 167.696942,11.869281 159.518719,11.869281 C150.676973,11.869281 145.101961,17.3477203 145.101961,26.0168728 C145.101961,34.6901988 150.303057,40.3555556 159.471979,40.3555556 C167.226885,40.3555556 172.994771,36.5009427 172.994771,28.9717779 L163.443059,28.9717779 C163.443059,31.8780903 162.168965,33.8304383 159.471979,33.8304383 C155.45416,33.8304383 155.077582,29.0686649 155.077582,26.0168728 C155.077582,22.3977699 155.691112,18.2033073 159.471979,18.2033073 C162.072528,18.207779 163.302545,20.1583383 163.302545,23.0649489" id="Shape"></path>
                <path d="M227,19.0689962 L227,12.4390861 L221.6059,12.4390861 L221.319241,12.4390861 L221.319241,2.96732026 L213.082245,5.19487286 L213.082245,12.4876851 L208.305882,12.4876851 L208.305882,19.1175952 L211.85358,19.1175952 L211.85358,30.7641659 C211.85358,37.6311442 215.688233,39.7620915 221.035544,39.7620915 C223.165051,39.7620915 225.484381,39.6213322 226.859336,39.4313813 L226.859336,32.6141873 C226.859336,32.6141873 225.625045,32.7546502 224.820446,32.7546502 C222.217123,32.7546502 221.319241,31.5693089 221.319241,28.8732502 L221.319241,19.1172988 L227,19.1172988 L227,19.0689962 Z" id="Shape"></path>
                <rect id="Rectangle-path" x="131.155556" y="0.296732026" width="9.79215686" height="8.30849673"></rect>
                <rect id="Rectangle-path" x="131.155556" y="12.4627451" width="9.79215686" height="27.0026144"></rect>
                <path d="M116.390332,0 L116.390332,0.0484110695 L116.390332,16.1378152 L116.294742,16.1378152 C114.915396,13.6207366 111.773749,11.866652 108.635378,11.866652 C101.921782,11.866652 96.7346405,16.6572689 96.7346405,26.2940418 C96.7346405,35.0273393 100.542436,40.0588235 108.443008,40.0588235 C112.822553,40.0588235 115.011283,37.7793453 116.294742,35.6436152 L116.390332,35.6436152 L116.390332,39.3460225 L125.814379,39.3460225 L125.814379,0 L116.390332,0 Z M111.460477,33.6192603 C108.241108,33.6192603 106.3588,30.8057752 106.3588,26.1226725 C106.3588,21.4903569 108.264931,18.6548938 111.460477,18.6548938 C114.656321,18.6548938 116.587466,21.5150079 116.587466,26.1502936 C116.587466,30.8057752 114.680144,33.6192603 111.460477,33.6192603 Z" id="Shape"></path>
            </g>
        </g>
    </g>
</svg>