<?xml version="1.0" encoding="UTF-8"?>
<svg width="227px" height="50px" viewBox="0 0 227 50" version="1.1" xmlns="http://www.w3.org/2000/svg" xmlns:xlink="http://www.w3.org/1999/xlink">
    <!-- Generator: sketchtool 51.3 (57544) - http://www.bohemiancoding.com/sketch -->
    <title>2777F2C1-8339-4149-9864-E54C9A24BECA</title>
    <desc>Created with sketchtool.</desc>
    <defs></defs>
    <g id="Symbols" stroke="none" stroke-width="1" fill="none" fill-rule="evenodd">
        <g id="HEADER" transform="translate(-606.000000, -38.000000)" fill="#181716">
            <g id="Group-4">
                <g id="logo-black" transform="translate(606.000000, 38.000000)">
                    <g id="Group">
                        <path d="M177.14902,30.614266 C177.14902,37.0861172 179.574852,40.6626506 186.756484,40.6626506 C191.232127,40.6626506 193.655578,38.5848521 195.181697,35.8802385 L195.278754,35.8802385 L195.278754,40.1790902 L204.745098,40.1790902 L204.745098,12.6998651 L194.94352,12.6998651 L194.94352,27.8646208 C194.94352,31.7723931 193.467418,33.7543862 190.806088,33.7543862 C189.329688,33.7543862 188.380255,33.2260965 187.756529,32.2559534 C187.185798,31.3903804 186.997936,30.2797026 186.997936,27.8138469 L186.997936,12.6506024 L177.149317,12.6506024 L177.149317,30.614266" id="Shape" fill-rule="nonzero"></path>
                        <path d="M92.8771242,22.3953019 C92.8771242,15.9227993 90.4452024,12.3493976 83.2514383,12.3493976 C78.7690552,12.3493976 76.3401159,14.425797 74.8142744,17.1305565 L74.7170453,17.1305565 L74.7170453,12.8329841 L65.2810458,12.8329841 L65.2810458,40.316714 L75.0999969,40.316714 L75.0999969,25.1493268 C75.0999969,21.2371123 76.5787151,19.2562213 79.2447622,19.2562213 C80.7234804,19.2562213 81.676684,19.7875619 82.2982348,20.7535259 C82.8681885,21.622168 83.058173,22.7344169 83.058173,25.1988944 L83.058173,40.3614458 L92.8771242,40.3614458 L92.8771242,22.3953019" id="Shape" fill-rule="nonzero"></path>
                        <path d="M30.7094052,12.0234414 C30.7094052,5.76347326 26.59775,0.903614458 15.9671051,0.903614458 C6.18906396,0.903614458 0.992733546,6.15184016 0.992733546,13.3256305 C0.992733546,20.0664626 5.62115415,23.5795409 10.5824568,24.4484704 C11.955078,24.6849855 14.2211002,25.1209567 16.4430732,25.6030258 C20.0320504,26.3710221 21.2598116,27.3336538 21.2598116,29.6490918 C21.2598116,31.9078867 19.322237,33.690337 15.9233515,33.690337 C12.7565374,33.690337 10.3459509,32.1489212 10.4423271,28.9735925 L0,28.9735925 C0.376635657,37.3034447 5.95403622,40.9638554 15.3539635,40.9638554 C25.7481025,40.9638554 31.7503268,36.3869109 31.7503268,27.4321766 C31.7503268,21.6048655 28.1105009,17.8998634 21.6846354,16.6958959 C19.4653231,16.2629376 17.1029247,15.8299793 15.7303035,15.5859318 C12.5197358,14.9610498 11.3868725,13.2765197 11.3868725,11.6887047 C11.3868725,9.47299475 13.228071,8.12350265 15.8751634,8.12350265 C18.8507033,8.12350265 20.4116423,10.0520802 20.4116423,11.9746319 L30.7094052,11.9746319 L30.7094052,12.0234414 Z" id="Shape" fill-rule="nonzero"></path>
                        <path d="M53.2478491,40.3509125 C51.0602459,46.8311004 48.0661983,50 40.4122644,50 C36.9889658,50 35.8005684,49.6142888 35.8005684,49.6142888 L35.8005684,42.6531635 C35.8005684,42.6531635 37.1817272,42.8907784 38.7491029,42.8907784 C41.5051736,42.8907784 43.1680376,42.2202899 43.6912894,40.1577565 L33.2339869,12.6506024 L43.406312,12.6506024 C43.406312,12.6506024 46.4033343,22.3459512 47.2100762,25.6127806 C47.5920292,27.0516876 48.3984736,31.4669389 48.3984736,31.4669389 L48.4939619,31.4669389 C48.4939619,31.4669389 49.2548932,27.0516876 49.5853837,25.6127806 C50.3478024,22.3459512 53.1068477,12.6506024 53.1068477,12.6506024 L62.6104575,12.6506024 L53.2478491,40.3509125" id="Shape" fill-rule="nonzero"></path>
                        <path d="M163.302545,23.4126186 L172.900996,23.4126186 C172.900996,16.2568583 167.696942,12.0481928 159.518719,12.0481928 C150.676973,12.0481928 145.101961,17.6092114 145.101961,26.4090384 C145.101961,35.2131019 150.303057,40.9638554 159.471979,40.9638554 C167.226885,40.9638554 172.994771,37.05114 172.994771,29.4084842 L163.443059,29.4084842 C163.443059,32.3586051 162.168965,34.3403818 159.471979,34.3403818 C155.45416,34.3403818 155.077582,29.5068317 155.077582,26.4090384 C155.077582,22.735383 155.691112,18.477695 159.471979,18.477695 C162.072528,18.4822341 163.302545,20.4621952 163.302545,23.4126186" id="Shape" fill-rule="nonzero"></path>
                        <path d="M227,19.3564329 L227,12.6265868 L221.6059,12.6265868 L221.319241,12.6265868 L221.319241,3.01204819 L213.082245,5.27317782 L213.082245,12.6759183 L208.305882,12.6759183 L208.305882,19.4057644 L211.85358,19.4057644 L211.85358,31.2278898 C211.85358,38.1983776 215.688233,40.3614458 221.035544,40.3614458 C223.165051,40.3614458 225.484381,40.2185648 226.859336,40.0257506 L226.859336,33.1057975 C226.859336,33.1057975 225.625045,33.2483778 224.820446,33.2483778 C222.217123,33.2483778 221.319241,32.0451692 221.319241,29.3084714 L221.319241,19.4054636 L227,19.4054636 L227,19.3564329 Z" id="Shape" fill-rule="nonzero"></path>
                        <rect id="Rectangle-path" fill-rule="nonzero" x="131.155556" y="0.301204819" width="9.79215686" height="8.43373494"></rect>
                        <rect id="Rectangle-path" fill-rule="nonzero" x="131.155556" y="12.6506024" width="9.79215686" height="27.4096386"></rect>
                        <path d="M116.390332,0 L116.390332,0.0491407943 L116.390332,16.3810687 L116.294742,16.3810687 C114.915396,13.8260489 111.773749,12.0455241 108.635378,12.0455241 C101.921782,12.0455241 96.7346405,16.9083524 96.7346405,26.6903853 C96.7346405,35.5553242 100.542436,40.6626506 108.443008,40.6626506 C112.822553,40.6626506 115.011283,38.3488126 116.294742,36.1808896 L116.390332,36.1808896 L116.390332,39.9391052 L125.814379,39.9391052 L125.814379,0 L116.390332,0 Z M111.460477,34.1260205 C108.241108,34.1260205 106.3588,31.2701264 106.3588,26.5164329 C106.3588,21.814292 108.264931,18.9360885 111.460477,18.9360885 C114.656321,18.9360885 116.587466,21.8393146 116.587466,26.5444703 C116.587466,31.2701264 114.680144,34.1260205 111.460477,34.1260205 Z" id="Shape" fill-rule="nonzero"></path>
                    </g>
                </g>
            </g>
        </g>
    </g>
</svg>